solid flame_cover2
facet normal 0.0 0.0 1.0
  outer loop
    vertex 386.9088864509171 14.79181768316197 0.0
    vertex 348.4088864509172 29.79181768316197 0.0
    vertex 348.4088864509172 14.79181768316197 0.0
  endloop
endfacet
facet normal 0.0 0.0 1.0
  outer loop
    vertex 348.4088864509172 29.79181768316197 0.0
    vertex 386.9088864509171 14.79181768316197 0.0
    vertex 386.9088864509171 24.29181768316197 0.0
  endloop
endfacet
facet normal 0.0 0.0 1.0
  outer loop
    vertex 348.4088864509172 29.79181768316197 0.0
    vertex 386.9088864509171 24.29181768316197 0.0
    vertex 405.4059236375276 29.79181768316197 0.0
  endloop
endfacet
facet normal 0.0 0.0 1.0
  outer loop
    vertex 405.4059236375276 29.79181768316197 0.0
    vertex 386.9088864509171 24.29181768316197 0.0
    vertex 405.4059236375276 24.29181768316197 0.0
  endloop
endfacet
facet normal 1.0 2.3303544645321276e-16 5.966368522667363e-17
  outer loop
    vertex 348.4088864509171 12.791817683161971 -1.9999999999999998
    vertex 348.4088864509172 14.79181768316197 0.0
    vertex 348.4088864509171 12.791817683161971 7.999999999999999
  endloop
endfacet
facet normal 1.0 2.3303544645321276e-16 5.966368522667363e-17
  outer loop
    vertex 348.4088864509172 14.79181768316197 0.0
    vertex 348.4088864509171 12.791817683161971 -1.9999999999999998
    vertex 348.4088864509171 31.791817683161973 -1.9999999999999998
  endloop
endfacet
facet normal 1.0 2.3303544645321276e-16 5.966368522667363e-17
  outer loop
    vertex 348.4088864509172 14.79181768316197 0.0
    vertex 348.4088864509171 31.791817683161973 -1.9999999999999998
    vertex 348.4088864509172 29.79181768316197 0.0
  endloop
endfacet
facet normal 1.0 2.3303544645321276e-16 5.966368522667363e-17
  outer loop
    vertex 348.4088864509172 29.79181768316197 0.0
    vertex 348.4088864509171 31.791817683161973 -1.9999999999999998
    vertex 348.4088864509172 29.79181768316197 7.999999999999999
  endloop
endfacet
facet normal 1.0 2.3303544645321276e-16 5.966368522667363e-17
  outer loop
    vertex 348.4088864509172 29.79181768316197 7.999999999999999
    vertex 348.4088864509171 31.791817683161973 -1.9999999999999998
    vertex 348.4088864509171 31.791817683161973 7.999999999999999
  endloop
endfacet
facet normal 1.0 2.3303544645321276e-16 5.966368522667363e-17
  outer loop
    vertex 348.4088864509172 14.79181768316197 7.999999999999999
    vertex 348.4088864509171 12.791817683161971 7.999999999999999
    vertex 348.4088864509172 14.79181768316197 0.0
  endloop
endfacet
facet normal 0.0 1.0 0.0
  outer loop
    vertex 348.4088864509171 12.791817683161971 7.999999999999999
    vertex 422.4088864509171 12.791817683161971 -1.9999999999999998
    vertex 348.4088864509171 12.791817683161971 -1.9999999999999998
  endloop
endfacet
facet normal 0.0 1.0 0.0
  outer loop
    vertex 422.4088864509171 12.791817683161971 -1.9999999999999998
    vertex 348.4088864509171 12.791817683161971 7.999999999999999
    vertex 422.4088864509171 12.791817683161971 7.999999999999999
  endloop
endfacet
facet normal 0.0 1.0 0.0
  outer loop
    vertex 422.4088864509171 24.991817683161972 0.4444444444444435
    vertex 422.4088864509171 24.991817683161972 0.0
    vertex 420.00888645091715 24.991817683161972 0.4444444444444435
  endloop
endfacet
facet normal 0.0 1.0 0.0
  outer loop
    vertex 408.9088864509171 24.991817683161972 2.5000000000000004
    vertex 420.00888645091715 24.991817683161972 5.0
    vertex 420.00888645091715 24.991817683161972 0.4444444444444435
  endloop
endfacet
facet normal 0.0 1.0 0.0
  outer loop
    vertex 420.00888645091715 24.991817683161972 5.0
    vertex 408.9088864509171 24.991817683161972 2.5000000000000004
    vertex 408.9088864509171 24.991817683161972 5.0
  endloop
endfacet
facet normal 1.0 0.0 0.0
  outer loop
    vertex 401.4088864509171 20.291817683161973 0.0
    vertex 401.4088864509171 14.79181768316197 5.0
    vertex 401.4088864509171 14.79181768316197 0.0
  endloop
endfacet
facet normal 1.0 0.0 0.0
  outer loop
    vertex 401.4088864509171 14.79181768316197 5.0
    vertex 401.4088864509171 20.291817683161973 0.0
    vertex 401.4088864509171 20.291817683161973 5.0
  endloop
endfacet
facet normal 0.0 -1.0 0.0
  outer loop
    vertex 405.4059236375276 24.29181768316197 5.0
    vertex 386.9088864509171 24.29181768316197 0.0
    vertex 405.4059236375276 24.29181768316197 0.0
  endloop
endfacet
facet normal 0.0 -1.0 0.0
  outer loop
    vertex 386.9088864509171 24.29181768316197 0.0
    vertex 405.4059236375276 24.29181768316197 5.0
    vertex 386.9088864509171 24.29181768316197 5.0
  endloop
endfacet
facet normal -0.18208926018230748 0.0 -0.9832820049844603
  outer loop
    vertex 420.00888645091715 24.991817683161972 0.4444444444444435
    vertex 408.9088864509171 19.59181768316197 2.5000000000000004
    vertex 408.9088864509171 24.991817683161972 2.5000000000000004
  endloop
endfacet
facet normal -0.18208926018230748 0.0 -0.9832820049844603
  outer loop
    vertex 408.9088864509171 19.59181768316197 2.5000000000000004
    vertex 420.00888645091715 24.991817683161972 0.4444444444444435
    vertex 420.00888645091715 19.59181768316197 0.4444444444444435
  endloop
endfacet
facet normal -0.18208926018230748 0.0 -0.9832820049844603
  outer loop
    vertex 420.00888645091715 19.59181768316197 0.4444444444444435
    vertex 420.00888645091715 24.991817683161972 0.4444444444444435
    vertex 422.4088864509171 24.991817683161972 0.0
  endloop
endfacet
facet normal -0.18208926018230748 0.0 -0.9832820049844603
  outer loop
    vertex 420.00888645091715 19.59181768316197 0.4444444444444435
    vertex 422.4088864509171 24.991817683161972 0.0
    vertex 422.4088864509171 19.59181768316197 0.0
  endloop
endfacet
facet normal 0.0 0.0 -1.0
  outer loop
    vertex 422.4088864509171 17.191817683161972 0.4444444444444435
    vertex 420.00888645091715 19.59181768316197 0.4444444444444435
    vertex 422.4088864509171 19.59181768316197 0.4444444444444435
  endloop
endfacet
facet normal -1.0 0.0 0.0
  outer loop
    vertex 390.9088864509171 20.291817683161973 5.0
    vertex 390.9088864509171 14.79181768316197 0.0
    vertex 390.9088864509171 14.79181768316197 5.0
  endloop
endfacet
facet normal -1.0 0.0 0.0
  outer loop
    vertex 390.9088864509171 14.79181768316197 0.0
    vertex 390.9088864509171 20.291817683161973 5.0
    vertex 390.9088864509171 20.291817683161973 0.0
  endloop
endfacet
facet normal -0.7071067811865479 -0.7071067811865471 0.0
  outer loop
    vertex 420.00888645091715 19.59181768316197 5.0
    vertex 422.4088864509171 17.191817683161972 0.4444444444444435
    vertex 422.4088864509171 17.191817683161972 5.0
  endloop
endfacet
facet normal -0.7071067811865479 -0.7071067811865471 0.0
  outer loop
    vertex 422.4088864509171 17.191817683161972 0.4444444444444435
    vertex 420.00888645091715 19.59181768316197 5.0
    vertex 420.00888645091715 19.59181768316197 0.4444444444444435
  endloop
endfacet
facet normal 0.0 -1.0 0.0
  outer loop
    vertex 420.00888645091715 19.59181768316197 5.0
    vertex 408.9088864509171 19.59181768316197 2.5000000000000004
    vertex 420.00888645091715 19.59181768316197 0.4444444444444435
  endloop
endfacet
facet normal 0.0 -1.0 0.0
  outer loop
    vertex 408.9088864509171 19.59181768316197 2.5000000000000004
    vertex 420.00888645091715 19.59181768316197 5.0
    vertex 408.9088864509171 19.59181768316197 5.0
  endloop
endfacet
facet normal 0.0 -1.0 0.0
  outer loop
    vertex 420.00888645091715 19.59181768316197 0.4444444444444435
    vertex 422.4088864509171 19.59181768316197 0.0
    vertex 422.4088864509171 19.59181768316197 0.4444444444444435
  endloop
endfacet
facet normal 0.0 0.0 -1.0
  outer loop
    vertex 422.4088864509171 29.79181768316197 5.0
    vertex 405.4059236375276 24.29181768316197 5.0
    vertex 405.4059236375276 29.79181768316197 5.0
  endloop
endfacet
facet normal 0.0 0.0 -1.0
  outer loop
    vertex 405.4059236375276 24.29181768316197 5.0
    vertex 422.4088864509171 29.79181768316197 5.0
    vertex 408.9088864509171 24.991817683161972 5.0
  endloop
endfacet
facet normal 0.0 0.0 -1.0
  outer loop
    vertex 408.9088864509171 24.991817683161972 5.0
    vertex 422.4088864509171 29.79181768316197 5.0
    vertex 420.00888645091715 24.991817683161972 5.0
  endloop
endfacet
facet normal 0.0 0.0 -1.0
  outer loop
    vertex 420.00888645091715 24.991817683161972 5.0
    vertex 422.4088864509171 29.79181768316197 5.0
    vertex 422.4088864509171 27.39181768316197 5.0
  endloop
endfacet
facet normal 0.0 0.0 -1.0
  outer loop
    vertex 386.9088864509171 24.29181768316197 5.0
    vertex 390.9088864509171 20.291817683161973 5.0
    vertex 386.9088864509171 14.79181768316197 5.0
  endloop
endfacet
facet normal 0.0 0.0 -1.0
  outer loop
    vertex 390.9088864509171 20.291817683161973 5.0
    vertex 386.9088864509171 24.29181768316197 5.0
    vertex 405.4059236375276 24.29181768316197 5.0
  endloop
endfacet
facet normal 0.0 0.0 -1.0
  outer loop
    vertex 390.9088864509171 20.291817683161973 5.0
    vertex 405.4059236375276 24.29181768316197 5.0
    vertex 401.4088864509171 20.291817683161973 5.0
  endloop
endfacet
facet normal 0.0 0.0 -1.0
  outer loop
    vertex 401.4088864509171 20.291817683161973 5.0
    vertex 405.4059236375276 24.29181768316197 5.0
    vertex 401.4088864509171 14.79181768316197 5.0
  endloop
endfacet
facet normal 0.0 0.0 -1.0
  outer loop
    vertex 401.4088864509171 14.79181768316197 5.0
    vertex 405.4059236375276 24.29181768316197 5.0
    vertex 408.9088864509171 19.59181768316197 5.0
  endloop
endfacet
facet normal 0.0 0.0 -1.0
  outer loop
    vertex 401.4088864509171 14.79181768316197 5.0
    vertex 408.9088864509171 19.59181768316197 5.0
    vertex 422.4088864509171 14.79181768316197 5.0
  endloop
endfacet
facet normal 0.0 0.0 -1.0
  outer loop
    vertex 408.9088864509171 19.59181768316197 5.0
    vertex 405.4059236375276 24.29181768316197 5.0
    vertex 408.9088864509171 24.991817683161972 5.0
  endloop
endfacet
facet normal 0.0 0.0 -1.0
  outer loop
    vertex 422.4088864509171 14.79181768316197 5.0
    vertex 408.9088864509171 19.59181768316197 5.0
    vertex 420.00888645091715 19.59181768316197 5.0
  endloop
endfacet
facet normal 0.0 0.0 -1.0
  outer loop
    vertex 422.4088864509171 14.79181768316197 5.0
    vertex 420.00888645091715 19.59181768316197 5.0
    vertex 422.4088864509171 17.191817683161972 5.0
  endloop
endfacet
facet normal 0.0 0.0 -1.0
  outer loop
    vertex 390.9088864509171 14.79181768316197 5.0
    vertex 386.9088864509171 14.79181768316197 5.0
    vertex 390.9088864509171 20.291817683161973 5.0
  endloop
endfacet
facet normal -1.0 0.0 0.0
  outer loop
    vertex 408.9088864509171 24.991817683161972 5.0
    vertex 408.9088864509171 19.59181768316197 2.5000000000000004
    vertex 408.9088864509171 19.59181768316197 5.0
  endloop
endfacet
facet normal -1.0 0.0 0.0
  outer loop
    vertex 408.9088864509171 19.59181768316197 2.5000000000000004
    vertex 408.9088864509171 24.991817683161972 5.0
    vertex 408.9088864509171 24.991817683161972 2.5000000000000004
  endloop
endfacet
facet normal -0.7071067811865479 0.7071067811865471 0.0
  outer loop
    vertex 422.4088864509171 27.39181768316197 5.0
    vertex 420.00888645091715 24.991817683161972 0.4444444444444435
    vertex 420.00888645091715 24.991817683161972 5.0
  endloop
endfacet
facet normal -0.7071067811865479 0.7071067811865471 0.0
  outer loop
    vertex 420.00888645091715 24.991817683161972 0.4444444444444435
    vertex 422.4088864509171 27.39181768316197 5.0
    vertex 422.4088864509171 27.39181768316197 0.4444444444444435
  endloop
endfacet
facet normal 1.0 0.0 0.0
  outer loop
    vertex 386.9088864509171 24.29181768316197 0.0
    vertex 386.9088864509171 14.79181768316197 5.0
    vertex 386.9088864509171 14.79181768316197 0.0
  endloop
endfacet
facet normal 1.0 0.0 0.0
  outer loop
    vertex 386.9088864509171 14.79181768316197 5.0
    vertex 386.9088864509171 24.29181768316197 0.0
    vertex 386.9088864509171 24.29181768316197 5.0
  endloop
endfacet
facet normal 0.0 1.0 0.0
  outer loop
    vertex 390.9088864509171 20.291817683161973 5.0
    vertex 401.4088864509171 20.291817683161973 0.0
    vertex 390.9088864509171 20.291817683161973 0.0
  endloop
endfacet
facet normal 0.0 1.0 0.0
  outer loop
    vertex 401.4088864509171 20.291817683161973 0.0
    vertex 390.9088864509171 20.291817683161973 5.0
    vertex 401.4088864509171 20.291817683161973 5.0
  endloop
endfacet
facet normal 0.0 0.0 -1.0
  outer loop
    vertex 422.4088864509171 24.991817683161972 0.4444444444444435
    vertex 420.00888645091715 24.991817683161972 0.4444444444444435
    vertex 422.4088864509171 27.39181768316197 0.4444444444444435
  endloop
endfacet
facet normal 1.0 0.0 0.0
  outer loop
    vertex 405.4059236375276 29.79181768316197 0.0
    vertex 405.4059236375276 24.29181768316197 5.0
    vertex 405.4059236375276 24.29181768316197 0.0
  endloop
endfacet
facet normal 1.0 0.0 0.0
  outer loop
    vertex 405.4059236375276 24.29181768316197 5.0
    vertex 405.4059236375276 29.79181768316197 0.0
    vertex 405.4059236375276 29.79181768316197 5.0
  endloop
endfacet
facet normal 1.0 0.0 0.0
  outer loop
    vertex 390.9088864509171 20.291817683161973 -1.9999999999999998
    vertex 390.9088864509171 14.79181768316197 0.0
    vertex 390.9088864509171 14.79181768316197 -1.9999999999999998
  endloop
endfacet
facet normal 1.0 0.0 0.0
  outer loop
    vertex 390.9088864509171 14.79181768316197 0.0
    vertex 390.9088864509171 20.291817683161973 -1.9999999999999998
    vertex 390.9088864509171 20.291817683161973 0.0
  endloop
endfacet
facet normal -1.0 0.0 0.0
  outer loop
    vertex 401.4088864509171 20.291817683161973 0.0
    vertex 401.4088864509171 14.79181768316197 -1.9999999999999998
    vertex 401.4088864509171 14.79181768316197 0.0
  endloop
endfacet
facet normal -1.0 0.0 0.0
  outer loop
    vertex 401.4088864509171 14.79181768316197 -1.9999999999999998
    vertex 401.4088864509171 20.291817683161973 0.0
    vertex 401.4088864509171 20.291817683161973 -1.9999999999999998
  endloop
endfacet
facet normal 0.0 -1.0 0.0
  outer loop
    vertex 422.4088864509171 29.79181768316197 7.999999999999999
    vertex 405.4059236375276 29.79181768316197 5.0
    vertex 422.4088864509171 29.79181768316197 5.0
  endloop
endfacet
facet normal 0.0 -1.0 0.0
  outer loop
    vertex 405.4059236375276 29.79181768316197 5.0
    vertex 348.4088864509172 29.79181768316197 0.0
    vertex 405.4059236375276 29.79181768316197 0.0
  endloop
endfacet
facet normal 0.0 -1.0 0.0
  outer loop
    vertex 348.4088864509172 29.79181768316197 0.0
    vertex 405.4059236375276 29.79181768316197 5.0
    vertex 348.4088864509172 29.79181768316197 7.999999999999999
  endloop
endfacet
facet normal 0.0 -1.0 0.0
  outer loop
    vertex 348.4088864509172 29.79181768316197 7.999999999999999
    vertex 405.4059236375276 29.79181768316197 5.0
    vertex 422.4088864509171 29.79181768316197 7.999999999999999
  endloop
endfacet
facet normal 0.0 -1.0 0.0
  outer loop
    vertex 401.4088864509171 14.79181768316197 0.0
    vertex 390.9088864509171 14.79181768316197 -1.9999999999999998
    vertex 401.4088864509171 14.79181768316197 -1.9999999999999998
  endloop
endfacet
facet normal 0.0 -1.0 0.0
  outer loop
    vertex 390.9088864509171 14.79181768316197 -1.9999999999999998
    vertex 401.4088864509171 14.79181768316197 0.0
    vertex 390.9088864509171 14.79181768316197 0.0
  endloop
endfacet
facet normal 0.0 0.0 -1.0
  outer loop
    vertex 422.4088864509171 31.791817683161973 -1.9999999999999998
    vertex 348.4088864509171 12.791817683161971 -1.9999999999999998
    vertex 348.4088864509171 31.791817683161973 -1.9999999999999998
  endloop
endfacet
facet normal 0.0 0.0 -1.0
  outer loop
    vertex 348.4088864509171 12.791817683161971 -1.9999999999999998
    vertex 422.4088864509171 31.791817683161973 -1.9999999999999998
    vertex 390.9088864509171 20.291817683161973 -1.9999999999999998
  endloop
endfacet
facet normal 0.0 0.0 -1.0
  outer loop
    vertex 390.9088864509171 20.291817683161973 -1.9999999999999998
    vertex 422.4088864509171 31.791817683161973 -1.9999999999999998
    vertex 401.4088864509171 20.291817683161973 -1.9999999999999998
  endloop
endfacet
facet normal 0.0 0.0 -1.0
  outer loop
    vertex 401.4088864509171 20.291817683161973 -1.9999999999999998
    vertex 422.4088864509171 31.791817683161973 -1.9999999999999998
    vertex 401.4088864509171 14.79181768316197 -1.9999999999999998
  endloop
endfacet
facet normal 0.0 0.0 -1.0
  outer loop
    vertex 348.4088864509171 12.791817683161971 -1.9999999999999998
    vertex 390.9088864509171 14.79181768316197 -1.9999999999999998
    vertex 422.4088864509171 12.791817683161971 -1.9999999999999998
  endloop
endfacet
facet normal 0.0 0.0 -1.0
  outer loop
    vertex 390.9088864509171 14.79181768316197 -1.9999999999999998
    vertex 348.4088864509171 12.791817683161971 -1.9999999999999998
    vertex 390.9088864509171 20.291817683161973 -1.9999999999999998
  endloop
endfacet
facet normal 0.0 0.0 -1.0
  outer loop
    vertex 422.4088864509171 12.791817683161971 -1.9999999999999998
    vertex 390.9088864509171 14.79181768316197 -1.9999999999999998
    vertex 401.4088864509171 14.79181768316197 -1.9999999999999998
  endloop
endfacet
facet normal 0.0 0.0 -1.0
  outer loop
    vertex 422.4088864509171 12.791817683161971 -1.9999999999999998
    vertex 401.4088864509171 14.79181768316197 -1.9999999999999998
    vertex 422.4088864509171 31.791817683161973 -1.9999999999999998
  endloop
endfacet
facet normal 0.0 0.0 -1.0
  outer loop
    vertex 348.4088864509172 14.79181768316197 7.999999999999999
    vertex 422.4088864509171 12.791817683161971 7.999999999999999
    vertex 348.4088864509171 12.791817683161971 7.999999999999999
  endloop
endfacet
facet normal 0.0 0.0 -1.0
  outer loop
    vertex 422.4088864509171 12.791817683161971 7.999999999999999
    vertex 348.4088864509172 14.79181768316197 7.999999999999999
    vertex 422.4088864509171 14.79181768316197 7.999999999999999
  endloop
endfacet
facet normal 1.0 0.0 0.0
  outer loop
    vertex 422.4088864509171 12.791817683161971 -1.9999999999999998
    vertex 422.4088864509171 17.191817683161972 0.4444444444444435
    vertex 422.4088864509171 12.791817683161971 7.999999999999999
  endloop
endfacet
facet normal 1.0 0.0 0.0
  outer loop
    vertex 422.4088864509171 17.191817683161972 0.4444444444444435
    vertex 422.4088864509171 12.791817683161971 -1.9999999999999998
    vertex 422.4088864509171 19.59181768316197 0.0
  endloop
endfacet
facet normal 1.0 0.0 0.0
  outer loop
    vertex 422.4088864509171 19.59181768316197 0.0
    vertex 422.4088864509171 12.791817683161971 -1.9999999999999998
    vertex 422.4088864509171 31.791817683161973 -1.9999999999999998
  endloop
endfacet
facet normal 1.0 0.0 0.0
  outer loop
    vertex 422.4088864509171 12.791817683161971 7.999999999999999
    vertex 422.4088864509171 17.191817683161972 0.4444444444444435
    vertex 422.4088864509171 14.79181768316197 5.0
  endloop
endfacet
facet normal 1.0 0.0 0.0
  outer loop
    vertex 422.4088864509171 19.59181768316197 0.0
    vertex 422.4088864509171 31.791817683161973 -1.9999999999999998
    vertex 422.4088864509171 24.991817683161972 0.0
  endloop
endfacet
facet normal 1.0 0.0 0.0
  outer loop
    vertex 422.4088864509171 24.991817683161972 0.0
    vertex 422.4088864509171 31.791817683161973 -1.9999999999999998
    vertex 422.4088864509171 24.991817683161972 0.4444444444444435
  endloop
endfacet
facet normal 1.0 0.0 0.0
  outer loop
    vertex 422.4088864509171 24.991817683161972 0.4444444444444435
    vertex 422.4088864509171 31.791817683161973 -1.9999999999999998
    vertex 422.4088864509171 27.39181768316197 0.4444444444444435
  endloop
endfacet
facet normal 1.0 0.0 0.0
  outer loop
    vertex 422.4088864509171 27.39181768316197 0.4444444444444435
    vertex 422.4088864509171 31.791817683161973 -1.9999999999999998
    vertex 422.4088864509171 27.39181768316197 5.0
  endloop
endfacet
facet normal 1.0 0.0 0.0
  outer loop
    vertex 422.4088864509171 27.39181768316197 5.0
    vertex 422.4088864509171 31.791817683161973 -1.9999999999999998
    vertex 422.4088864509171 29.79181768316197 5.0
  endloop
endfacet
facet normal 1.0 0.0 0.0
  outer loop
    vertex 422.4088864509171 29.79181768316197 5.0
    vertex 422.4088864509171 31.791817683161973 -1.9999999999999998
    vertex 422.4088864509171 29.79181768316197 7.999999999999999
  endloop
endfacet
facet normal 1.0 0.0 0.0
  outer loop
    vertex 422.4088864509171 29.79181768316197 7.999999999999999
    vertex 422.4088864509171 31.791817683161973 -1.9999999999999998
    vertex 422.4088864509171 31.791817683161973 7.999999999999999
  endloop
endfacet
facet normal 1.0 0.0 0.0
  outer loop
    vertex 422.4088864509171 19.59181768316197 0.4444444444444435
    vertex 422.4088864509171 17.191817683161972 0.4444444444444435
    vertex 422.4088864509171 19.59181768316197 0.0
  endloop
endfacet
facet normal 1.0 0.0 0.0
  outer loop
    vertex 422.4088864509171 17.191817683161972 5.0
    vertex 422.4088864509171 14.79181768316197 5.0
    vertex 422.4088864509171 17.191817683161972 0.4444444444444435
  endloop
endfacet
facet normal 1.0 0.0 0.0
  outer loop
    vertex 422.4088864509171 14.79181768316197 7.999999999999999
    vertex 422.4088864509171 12.791817683161971 7.999999999999999
    vertex 422.4088864509171 14.79181768316197 5.0
  endloop
endfacet
facet normal 0.0 -1.0 0.0
  outer loop
    vertex 422.4088864509171 14.79181768316197 7.999999999999999
    vertex 401.4088864509171 14.79181768316197 5.0
    vertex 422.4088864509171 14.79181768316197 5.0
  endloop
endfacet
facet normal 0.0 -1.0 0.0
  outer loop
    vertex 401.4088864509171 14.79181768316197 5.0
    vertex 422.4088864509171 14.79181768316197 7.999999999999999
    vertex 390.9088864509171 14.79181768316197 5.0
  endloop
endfacet
facet normal 0.0 -1.0 0.0
  outer loop
    vertex 390.9088864509171 14.79181768316197 5.0
    vertex 422.4088864509171 14.79181768316197 7.999999999999999
    vertex 386.9088864509171 14.79181768316197 5.0
  endloop
endfacet
facet normal 0.0 -1.0 0.0
  outer loop
    vertex 386.9088864509171 14.79181768316197 5.0
    vertex 348.4088864509172 14.79181768316197 0.0
    vertex 386.9088864509171 14.79181768316197 0.0
  endloop
endfacet
facet normal 0.0 -1.0 0.0
  outer loop
    vertex 348.4088864509172 14.79181768316197 0.0
    vertex 386.9088864509171 14.79181768316197 5.0
    vertex 348.4088864509172 14.79181768316197 7.999999999999999
  endloop
endfacet
facet normal 0.0 -1.0 0.0
  outer loop
    vertex 348.4088864509172 14.79181768316197 7.999999999999999
    vertex 386.9088864509171 14.79181768316197 5.0
    vertex 422.4088864509171 14.79181768316197 7.999999999999999
  endloop
endfacet
facet normal 0.0 -1.0 0.0
  outer loop
    vertex 401.4088864509171 14.79181768316197 5.0
    vertex 390.9088864509171 14.79181768316197 0.0
    vertex 401.4088864509171 14.79181768316197 0.0
  endloop
endfacet
facet normal 0.0 -1.0 0.0
  outer loop
    vertex 390.9088864509171 14.79181768316197 0.0
    vertex 401.4088864509171 14.79181768316197 5.0
    vertex 390.9088864509171 14.79181768316197 5.0
  endloop
endfacet
facet normal 0.0 1.0 0.0
  outer loop
    vertex 348.4088864509171 31.791817683161973 7.999999999999999
    vertex 422.4088864509171 31.791817683161973 -1.9999999999999998
    vertex 348.4088864509171 31.791817683161973 -1.9999999999999998
  endloop
endfacet
facet normal 0.0 1.0 0.0
  outer loop
    vertex 422.4088864509171 31.791817683161973 -1.9999999999999998
    vertex 348.4088864509171 31.791817683161973 7.999999999999999
    vertex 422.4088864509171 31.791817683161973 7.999999999999999
  endloop
endfacet
facet normal 0.0 0.0 1.0
  outer loop
    vertex 348.4088864509172 29.79181768316197 7.999999999999999
    vertex 422.4088864509171 31.791817683161973 7.999999999999999
    vertex 348.4088864509171 31.791817683161973 7.999999999999999
  endloop
endfacet
facet normal 0.0 0.0 1.0
  outer loop
    vertex 422.4088864509171 31.791817683161973 7.999999999999999
    vertex 348.4088864509172 29.79181768316197 7.999999999999999
    vertex 422.4088864509171 29.79181768316197 7.999999999999999
  endloop
endfacet
facet normal -0.0 -1.0 -0.0
  outer loop
    vertex 401.4088864509171 20.291817683161973 0.0
    vertex 390.9088864509171 20.291817683161973 -1.9999999999999998
    vertex 401.4088864509171 20.291817683161973 -1.9999999999999998
  endloop
endfacet
facet normal -0.0 -1.0 -0.0
  outer loop
    vertex 390.9088864509171 20.291817683161973 -1.9999999999999998
    vertex 401.4088864509171 20.291817683161973 0.0
    vertex 390.9088864509171 20.291817683161973 0.0
  endloop
endfacet
endsolid flame_cover2
