solid flame2
facet normal -0.13052619222005263 -0.0 -0.9914448613738104
  outer loop
    vertex 83.87557135668506 42.016790505729944 17.443103772525124
    vertex 83.09911422137749 37.016790505729944 17.54532629365792
    vertex 83.09911422137749 42.016790505729944 17.54532629365792
  endloop
endfacet
facet normal -0.13052619222005263 -0.0 -0.9914448613738104
  outer loop
    vertex 83.09911422137749 37.016790505729944 17.54532629365792
    vertex 83.87557135668506 42.016790505729944 17.443103772525124
    vertex 83.87557135668506 37.016790505729944 17.443103772525124
  endloop
endfacet
facet normal -0.92387953251129 -0.0 -0.3826834323650821
  outer loop
    vertex 85.6971904327308 42.016790505729944 16.045326293657926
    vertex 85.99689170024469 37.016790505729944 15.321783428965487
    vertex 85.6971904327308 37.016790505729944 16.045326293657926
  endloop
endfacet
facet normal -0.92387953251129 -0.0 -0.3826834323650821
  outer loop
    vertex 85.99689170024469 37.016790505729944 15.321783428965487
    vertex 85.6971904327308 42.016790505729944 16.045326293657926
    vertex 85.99689170024469 42.016790505729944 15.321783428965487
  endloop
endfacet
facet normal -0.9914448613738096 -0.0 -0.13052619222005876
  outer loop
    vertex 85.99689170024469 42.016790505729944 15.321783428965487
    vertex 86.09911422137749 37.016790505729944 14.545326293657924
    vertex 85.99689170024469 37.016790505729944 15.321783428965487
  endloop
endfacet
facet normal -0.9914448613738096 -0.0 -0.13052619222005876
  outer loop
    vertex 86.09911422137749 37.016790505729944 14.545326293657924
    vertex 85.99689170024469 42.016790505729944 15.321783428965487
    vertex 86.09911422137749 42.016790505729944 14.545326293657924
  endloop
endfacet
facet normal 0.7933533402912337 0.0 0.6087614290087224
  outer loop
    vertex 80.97779387781786 42.016790505729944 12.424005950098286
    vertex 80.50103801002417 37.016790505729944 13.045326293657928
    vertex 80.97779387781786 37.016790505729944 12.424005950098286
  endloop
endfacet
facet normal 0.7933533402912337 0.0 0.6087614290087224
  outer loop
    vertex 80.50103801002417 37.016790505729944 13.045326293657928
    vertex 80.97779387781786 42.016790505729944 12.424005950098286
    vertex 80.50103801002417 42.016790505729944 13.045326293657928
  endloop
endfacet
facet normal 0.3826834323650951 0.0 -0.9238795325112845
  outer loop
    vertex 82.32265708606992 42.016790505729944 17.443103772525124
    vertex 81.59911422137749 37.016790505729944 17.143402505011235
    vertex 81.59911422137749 42.016790505729944 17.143402505011235
  endloop
endfacet
facet normal 0.3826834323650951 0.0 -0.9238795325112845
  outer loop
    vertex 81.59911422137749 37.016790505729944 17.143402505011235
    vertex 82.32265708606992 42.016790505729944 17.443103772525124
    vertex 82.32265708606992 37.016790505729944 17.443103772525124
  endloop
endfacet
facet normal -0.7933533402912332 0.0 0.6087614290087233
  outer loop
    vertex 85.6971904327308 42.016790505729944 13.045326293657928
    vertex 85.22043456493714 37.016790505729944 12.424005950098286
    vertex 85.6971904327308 37.016790505729944 13.045326293657928
  endloop
endfacet
facet normal -0.7933533402912332 0.0 0.6087614290087233
  outer loop
    vertex 85.22043456493714 37.016790505729944 12.424005950098286
    vertex 85.6971904327308 42.016790505729944 13.045326293657928
    vertex 85.22043456493714 42.016790505729944 12.424005950098286
  endloop
endfacet
facet normal -0.923879532511285 0.0 0.38268343236509444
  outer loop
    vertex 85.9968917002447 42.016790505729944 13.768869158350364
    vertex 85.6971904327308 37.016790505729944 13.045326293657928
    vertex 85.9968917002447 37.016790505729944 13.768869158350364
  endloop
endfacet
facet normal -0.923879532511285 0.0 0.38268343236509444
  outer loop
    vertex 85.6971904327308 37.016790505729944 13.045326293657928
    vertex 85.9968917002447 42.016790505729944 13.768869158350364
    vertex 85.6971904327308 42.016790505729944 13.045326293657928
  endloop
endfacet
facet normal -0.13052619222005263 0.0 0.9914448613738104
  outer loop
    vertex 83.87557135668506 37.016790505729944 11.647548814790724
    vertex 83.09911422137749 42.016790505729944 11.54532629365793
    vertex 83.09911422137749 37.016790505729944 11.54532629365793
  endloop
endfacet
facet normal -0.13052619222005263 0.0 0.9914448613738104
  outer loop
    vertex 83.09911422137749 42.016790505729944 11.54532629365793
    vertex 83.87557135668506 37.016790505729944 11.647548814790724
    vertex 83.87557135668506 42.016790505729944 11.647548814790724
  endloop
endfacet
facet normal -0.38268343236508695 0.0 0.923879532511288
  outer loop
    vertex 84.59911422137749 37.016790505729944 11.947250082304613
    vertex 83.87557135668506 42.016790505729944 11.647548814790724
    vertex 83.87557135668506 37.016790505729944 11.647548814790724
  endloop
endfacet
facet normal -0.38268343236508695 0.0 0.923879532511288
  outer loop
    vertex 83.87557135668506 42.016790505729944 11.647548814790724
    vertex 84.59911422137749 37.016790505729944 11.947250082304613
    vertex 84.59911422137749 42.016790505729944 11.947250082304613
  endloop
endfacet
facet normal 0.923879532511285 0.0 -0.38268343236509444
  outer loop
    vertex 80.20133674251029 42.016790505729944 15.321783428965484
    vertex 80.50103801002417 37.016790505729944 16.045326293657922
    vertex 80.20133674251029 37.016790505729944 15.321783428965484
  endloop
endfacet
facet normal 0.923879532511285 0.0 -0.38268343236509444
  outer loop
    vertex 80.50103801002417 37.016790505729944 16.045326293657922
    vertex 80.20133674251029 42.016790505729944 15.321783428965484
    vertex 80.50103801002417 42.016790505729944 16.045326293657922
  endloop
endfacet
facet normal 0.13052619222005074 0.0 -0.9914448613738105
  outer loop
    vertex 83.09911422137749 42.016790505729944 17.54532629365792
    vertex 82.32265708606992 37.016790505729944 17.443103772525124
    vertex 82.32265708606992 42.016790505729944 17.443103772525124
  endloop
endfacet
facet normal 0.13052619222005074 0.0 -0.9914448613738105
  outer loop
    vertex 82.32265708606992 37.016790505729944 17.443103772525124
    vertex 83.09911422137749 42.016790505729944 17.54532629365792
    vertex 83.09911422137749 37.016790505729944 17.54532629365792
  endloop
endfacet
facet normal 0.38268343236508695 0.0 0.923879532511288
  outer loop
    vertex 82.32265708606994 37.016790505729944 11.647548814790724
    vertex 81.59911422137749 42.016790505729944 11.947250082304613
    vertex 81.59911422137749 37.016790505729944 11.947250082304613
  endloop
endfacet
facet normal 0.38268343236508695 0.0 0.923879532511288
  outer loop
    vertex 81.59911422137749 42.016790505729944 11.947250082304613
    vertex 82.32265708606994 37.016790505729944 11.647548814790724
    vertex 82.32265708606994 42.016790505729944 11.647548814790724
  endloop
endfacet
facet normal 0.608761429008722 0.0 -0.7933533402912343
  outer loop
    vertex 81.59911422137749 42.016790505729944 17.143402505011235
    vertex 80.97779387781786 37.016790505729944 16.66664663721756
    vertex 80.97779387781786 42.016790505729944 16.66664663721756
  endloop
endfacet
facet normal 0.608761429008722 0.0 -0.7933533402912343
  outer loop
    vertex 80.97779387781786 37.016790505729944 16.66664663721756
    vertex 81.59911422137749 42.016790505729944 17.143402505011235
    vertex 81.59911422137749 37.016790505729944 17.143402505011235
  endloop
endfacet
facet normal -0.7933533402912324 -0.0 -0.6087614290087242
  outer loop
    vertex 85.22043456493714 42.016790505729944 16.666646637217564
    vertex 85.6971904327308 37.016790505729944 16.045326293657926
    vertex 85.22043456493714 37.016790505729944 16.666646637217564
  endloop
endfacet
facet normal -0.7933533402912324 -0.0 -0.6087614290087242
  outer loop
    vertex 85.6971904327308 37.016790505729944 16.045326293657926
    vertex 85.22043456493714 42.016790505729944 16.666646637217564
    vertex 85.6971904327308 42.016790505729944 16.045326293657926
  endloop
endfacet
facet normal 0.13052619222005263 0.0 0.9914448613738104
  outer loop
    vertex 83.09911422137749 37.016790505729944 11.54532629365793
    vertex 82.32265708606994 42.016790505729944 11.647548814790724
    vertex 82.32265708606994 37.016790505729944 11.647548814790724
  endloop
endfacet
facet normal 0.13052619222005263 0.0 0.9914448613738104
  outer loop
    vertex 82.32265708606994 42.016790505729944 11.647548814790724
    vertex 83.09911422137749 37.016790505729944 11.54532629365793
    vertex 83.09911422137749 42.016790505729944 11.54532629365793
  endloop
endfacet
facet normal 0.9914448613738114 0.0 -0.13052619222004508
  outer loop
    vertex 80.0991142213775 42.016790505729944 14.545326293657924
    vertex 80.20133674251029 37.016790505729944 15.321783428965484
    vertex 80.0991142213775 37.016790505729944 14.545326293657924
  endloop
endfacet
facet normal 0.9914448613738114 0.0 -0.13052619222004508
  outer loop
    vertex 80.20133674251029 37.016790505729944 15.321783428965484
    vertex 80.0991142213775 42.016790505729944 14.545326293657924
    vertex 80.20133674251029 42.016790505729944 15.321783428965484
  endloop
endfacet
facet normal 0.608761429008722 0.0 0.7933533402912343
  outer loop
    vertex 81.59911422137749 37.016790505729944 11.947250082304613
    vertex 80.97779387781786 42.016790505729944 12.424005950098286
    vertex 80.97779387781786 37.016790505729944 12.424005950098286
  endloop
endfacet
facet normal 0.608761429008722 0.0 0.7933533402912343
  outer loop
    vertex 80.97779387781786 42.016790505729944 12.424005950098286
    vertex 81.59911422137749 37.016790505729944 11.947250082304613
    vertex 81.59911422137749 42.016790505729944 11.947250082304613
  endloop
endfacet
facet normal -0.608761429008723 0.0 0.7933533402912333
  outer loop
    vertex 85.22043456493714 37.016790505729944 12.424005950098286
    vertex 84.59911422137749 42.016790505729944 11.947250082304613
    vertex 84.59911422137749 37.016790505729944 11.947250082304613
  endloop
endfacet
facet normal -0.608761429008723 0.0 0.7933533402912333
  outer loop
    vertex 84.59911422137749 42.016790505729944 11.947250082304613
    vertex 85.22043456493714 37.016790505729944 12.424005950098286
    vertex 85.22043456493714 42.016790505729944 12.424005950098286
  endloop
endfacet
facet normal 0.7933533402912324 0.0 -0.6087614290087242
  outer loop
    vertex 80.50103801002417 42.016790505729944 16.045326293657922
    vertex 80.97779387781786 37.016790505729944 16.66664663721756
    vertex 80.50103801002417 37.016790505729944 16.045326293657922
  endloop
endfacet
facet normal 0.7933533402912324 0.0 -0.6087614290087242
  outer loop
    vertex 80.97779387781786 37.016790505729944 16.66664663721756
    vertex 80.50103801002417 42.016790505729944 16.045326293657922
    vertex 80.97779387781786 42.016790505729944 16.66664663721756
  endloop
endfacet
facet normal 0.0 0.0 1.0
  outer loop
    vertex 90.5991142213775 42.016790505729944 3.9999999999999996
    vertex 84.5991142213775 97.01679050572994 3.9999999999999996
    vertex 84.5991142213775 42.016790505729944 3.9999999999999996
  endloop
endfacet
facet normal 0.0 0.0 1.0
  outer loop
    vertex 84.5991142213775 97.01679050572994 3.9999999999999996
    vertex 90.5991142213775 42.016790505729944 3.9999999999999996
    vertex 90.5991142213775 97.01679050572994 3.9999999999999996
  endloop
endfacet
facet normal 0.9914448613738096 0.0 0.13052619222005876
  outer loop
    vertex 80.20133674251029 42.016790505729944 13.76886915835036
    vertex 80.0991142213775 37.016790505729944 14.545326293657924
    vertex 80.20133674251029 37.016790505729944 13.76886915835036
  endloop
endfacet
facet normal 0.9914448613738096 0.0 0.13052619222005876
  outer loop
    vertex 80.0991142213775 37.016790505729944 14.545326293657924
    vertex 80.20133674251029 42.016790505729944 13.76886915835036
    vertex 80.0991142213775 42.016790505729944 14.545326293657924
  endloop
endfacet
facet normal 0.9238795325112894 0.0 0.38268343236508334
  outer loop
    vertex 80.50103801002417 42.016790505729944 13.045326293657928
    vertex 80.20133674251029 37.016790505729944 13.76886915835036
    vertex 80.50103801002417 37.016790505729944 13.045326293657928
  endloop
endfacet
facet normal 0.9238795325112894 0.0 0.38268343236508334
  outer loop
    vertex 80.20133674251029 37.016790505729944 13.76886915835036
    vertex 80.50103801002417 42.016790505729944 13.045326293657928
    vertex 80.20133674251029 42.016790505729944 13.76886915835036
  endloop
endfacet
facet normal -0.9914448613738114 0.0 0.13052619222004508
  outer loop
    vertex 86.09911422137749 42.016790505729944 14.545326293657924
    vertex 85.9968917002447 37.016790505729944 13.768869158350364
    vertex 86.09911422137749 37.016790505729944 14.545326293657924
  endloop
endfacet
facet normal -0.9914448613738114 0.0 0.13052619222004508
  outer loop
    vertex 85.9968917002447 37.016790505729944 13.768869158350364
    vertex 86.09911422137749 42.016790505729944 14.545326293657924
    vertex 85.9968917002447 42.016790505729944 13.768869158350364
  endloop
endfacet
facet normal -0.608761429008722 -0.0 -0.7933533402912343
  outer loop
    vertex 85.22043456493714 42.016790505729944 16.666646637217564
    vertex 84.59911422137749 37.016790505729944 17.143402505011235
    vertex 84.59911422137749 42.016790505729944 17.143402505011235
  endloop
endfacet
facet normal -0.608761429008722 -0.0 -0.7933533402912343
  outer loop
    vertex 84.59911422137749 37.016790505729944 17.143402505011235
    vertex 85.22043456493714 42.016790505729944 16.666646637217564
    vertex 85.22043456493714 37.016790505729944 16.666646637217564
  endloop
endfacet
facet normal -0.38268343236508695 -0.0 -0.923879532511288
  outer loop
    vertex 84.59911422137749 42.016790505729944 17.143402505011235
    vertex 83.87557135668506 37.016790505729944 17.443103772525124
    vertex 83.87557135668506 42.016790505729944 17.443103772525124
  endloop
endfacet
facet normal -0.38268343236508695 -0.0 -0.923879532511288
  outer loop
    vertex 83.87557135668506 37.016790505729944 17.443103772525124
    vertex 84.59911422137749 42.016790505729944 17.143402505011235
    vertex 84.59911422137749 37.016790505729944 17.143402505011235
  endloop
endfacet
facet normal 1.0 0.0 0.0
  outer loop
    vertex 81.5991142213775 97.01679050572993 0.0
    vertex 81.5991142213775 42.016790505729944 3.9999999999999996
    vertex 81.5991142213775 42.016790505729944 0.0
  endloop
endfacet
facet normal 1.0 0.0 0.0
  outer loop
    vertex 81.5991142213775 42.016790505729944 3.9999999999999996
    vertex 81.5991142213775 97.01679050572993 0.0
    vertex 81.5991142213775 97.01679050572993 3.9999999999999996
  endloop
endfacet
facet normal 0.0 0.0 1.0
  outer loop
    vertex 81.5991142213775 97.01679050572993 3.9999999999999996
    vertex 75.59911422137749 102.01679050572994 3.9999999999999996
    vertex 75.59911422137749 97.01679050572994 3.9999999999999996
  endloop
endfacet
facet normal 0.0 0.0 1.0
  outer loop
    vertex 75.59911422137749 102.01679050572994 3.9999999999999996
    vertex 81.5991142213775 97.01679050572993 3.9999999999999996
    vertex 90.5991142213775 102.01679050572994 3.9999999999999996
  endloop
endfacet
facet normal 0.0 0.0 1.0
  outer loop
    vertex 90.5991142213775 102.01679050572994 3.9999999999999996
    vertex 81.5991142213775 97.01679050572993 3.9999999999999996
    vertex 84.5991142213775 97.01679050572994 3.9999999999999996
  endloop
endfacet
facet normal 0.0 0.0 1.0
  outer loop
    vertex 90.5991142213775 102.01679050572994 3.9999999999999996
    vertex 84.5991142213775 97.01679050572994 3.9999999999999996
    vertex 90.5991142213775 97.01679050572994 3.9999999999999996
  endloop
endfacet
facet normal -1.0 0.0 0.0
  outer loop
    vertex 84.5991142213775 97.01679050572994 3.9999999999999996
    vertex 84.5991142213775 42.016790505729944 0.0
    vertex 84.5991142213775 42.016790505729944 3.9999999999999996
  endloop
endfacet
facet normal -1.0 0.0 0.0
  outer loop
    vertex 84.5991142213775 42.016790505729944 0.0
    vertex 84.5991142213775 97.01679050572994 3.9999999999999996
    vertex 84.5991142213775 97.01679050572994 0.0
  endloop
endfacet
facet normal 3.759955310063871e-15 -1.0 0.0
  outer loop
    vertex 84.5991142213775 97.01679050572994 3.9999999999999996
    vertex 81.5991142213775 97.01679050572993 0.0
    vertex 84.5991142213775 97.01679050572994 0.0
  endloop
endfacet
facet normal 3.759955310063871e-15 -1.0 0.0
  outer loop
    vertex 81.5991142213775 97.01679050572993 0.0
    vertex 84.5991142213775 97.01679050572994 3.9999999999999996
    vertex 81.5991142213775 97.01679050572993 3.9999999999999996
  endloop
endfacet
facet normal 2.1867000252434748e-47 -1.0 9.29475002784227e-32
  outer loop
    vertex 90.5991142213775 37.016790505729944 0.0
    vertex 85.22043456493714 37.016790505729944 12.424005950098286
    vertex 75.59911422137749 37.016790505729944 0.0
  endloop
endfacet
facet normal 2.1867000252434748e-47 -1.0 9.29475002784227e-32
  outer loop
    vertex 85.22043456493714 37.016790505729944 12.424005950098286
    vertex 90.5991142213775 37.016790505729944 0.0
    vertex 85.6971904327308 37.016790505729944 13.045326293657928
  endloop
endfacet
facet normal 2.1867000252434748e-47 -1.0 9.29475002784227e-32
  outer loop
    vertex 85.6971904327308 37.016790505729944 13.045326293657928
    vertex 90.5991142213775 37.016790505729944 0.0
    vertex 90.5991142213775 37.016790505729944 24.0
  endloop
endfacet
facet normal 2.1867000252434748e-47 -1.0 9.29475002784227e-32
  outer loop
    vertex 75.59911422137749 37.016790505729944 0.0
    vertex 85.22043456493714 37.016790505729944 12.424005950098286
    vertex 84.59911422137749 37.016790505729944 11.947250082304613
  endloop
endfacet
facet normal 2.1867000252434748e-47 -1.0 9.29475002784227e-32
  outer loop
    vertex 75.59911422137749 37.016790505729944 0.0
    vertex 84.59911422137749 37.016790505729944 11.947250082304613
    vertex 83.87557135668506 37.016790505729944 11.647548814790724
  endloop
endfacet
facet normal 2.1867000252434748e-47 -1.0 9.29475002784227e-32
  outer loop
    vertex 75.59911422137749 37.016790505729944 0.0
    vertex 83.87557135668506 37.016790505729944 11.647548814790724
    vertex 83.09911422137749 37.016790505729944 11.54532629365793
  endloop
endfacet
facet normal 2.1867000252434748e-47 -1.0 9.29475002784227e-32
  outer loop
    vertex 85.6971904327308 37.016790505729944 13.045326293657928
    vertex 90.5991142213775 37.016790505729944 24.0
    vertex 85.9968917002447 37.016790505729944 13.768869158350364
  endloop
endfacet
facet normal 2.1867000252434748e-47 -1.0 9.29475002784227e-32
  outer loop
    vertex 85.9968917002447 37.016790505729944 13.768869158350364
    vertex 90.5991142213775 37.016790505729944 24.0
    vertex 86.09911422137749 37.016790505729944 14.545326293657924
  endloop
endfacet
facet normal 2.1867000252434748e-47 -1.0 9.29475002784227e-32
  outer loop
    vertex 86.09911422137749 37.016790505729944 14.545326293657924
    vertex 90.5991142213775 37.016790505729944 24.0
    vertex 85.99689170024469 37.016790505729944 15.321783428965487
  endloop
endfacet
facet normal 2.1867000252434748e-47 -1.0 9.29475002784227e-32
  outer loop
    vertex 85.99689170024469 37.016790505729944 15.321783428965487
    vertex 90.5991142213775 37.016790505729944 24.0
    vertex 85.6971904327308 37.016790505729944 16.045326293657926
  endloop
endfacet
facet normal 2.1867000252434748e-47 -1.0 9.29475002784227e-32
  outer loop
    vertex 85.6971904327308 37.016790505729944 16.045326293657926
    vertex 90.5991142213775 37.016790505729944 24.0
    vertex 85.22043456493714 37.016790505729944 16.666646637217564
  endloop
endfacet
facet normal 2.1867000252434748e-47 -1.0 9.29475002784227e-32
  outer loop
    vertex 85.22043456493714 37.016790505729944 16.666646637217564
    vertex 90.5991142213775 37.016790505729944 24.0
    vertex 84.59911422137749 37.016790505729944 17.143402505011235
  endloop
endfacet
facet normal 2.1867000252434748e-47 -1.0 9.29475002784227e-32
  outer loop
    vertex 84.59911422137749 37.016790505729944 17.143402505011235
    vertex 90.5991142213775 37.016790505729944 24.0
    vertex 83.87557135668506 37.016790505729944 17.443103772525124
  endloop
endfacet
facet normal 2.1867000252434748e-47 -1.0 9.29475002784227e-32
  outer loop
    vertex 83.87557135668506 37.016790505729944 17.443103772525124
    vertex 90.5991142213775 37.016790505729944 24.0
    vertex 83.09911422137749 37.016790505729944 17.54532629365792
  endloop
endfacet
facet normal 2.1867000252434748e-47 -1.0 9.29475002784227e-32
  outer loop
    vertex 75.59911422137749 37.016790505729944 0.0
    vertex 80.50103801002417 37.016790505729944 13.045326293657928
    vertex 75.59911422137749 37.016790505729944 24.0
  endloop
endfacet
facet normal 2.1867000252434748e-47 -1.0 9.29475002784227e-32
  outer loop
    vertex 80.50103801002417 37.016790505729944 13.045326293657928
    vertex 75.59911422137749 37.016790505729944 0.0
    vertex 80.97779387781786 37.016790505729944 12.424005950098286
  endloop
endfacet
facet normal 2.1867000252434748e-47 -1.0 9.29475002784227e-32
  outer loop
    vertex 80.97779387781786 37.016790505729944 12.424005950098286
    vertex 75.59911422137749 37.016790505729944 0.0
    vertex 81.59911422137749 37.016790505729944 11.947250082304613
  endloop
endfacet
facet normal 2.1867000252434748e-47 -1.0 9.29475002784227e-32
  outer loop
    vertex 81.59911422137749 37.016790505729944 11.947250082304613
    vertex 75.59911422137749 37.016790505729944 0.0
    vertex 82.32265708606994 37.016790505729944 11.647548814790724
  endloop
endfacet
facet normal 2.1867000252434748e-47 -1.0 9.29475002784227e-32
  outer loop
    vertex 82.32265708606994 37.016790505729944 11.647548814790724
    vertex 75.59911422137749 37.016790505729944 0.0
    vertex 83.09911422137749 37.016790505729944 11.54532629365793
  endloop
endfacet
facet normal 2.1867000252434748e-47 -1.0 9.29475002784227e-32
  outer loop
    vertex 75.59911422137749 37.016790505729944 24.0
    vertex 80.50103801002417 37.016790505729944 13.045326293657928
    vertex 80.20133674251029 37.016790505729944 13.76886915835036
  endloop
endfacet
facet normal 2.1867000252434748e-47 -1.0 9.29475002784227e-32
  outer loop
    vertex 75.59911422137749 37.016790505729944 24.0
    vertex 80.20133674251029 37.016790505729944 13.76886915835036
    vertex 80.0991142213775 37.016790505729944 14.545326293657924
  endloop
endfacet
facet normal 2.1867000252434748e-47 -1.0 9.29475002784227e-32
  outer loop
    vertex 75.59911422137749 37.016790505729944 24.0
    vertex 80.0991142213775 37.016790505729944 14.545326293657924
    vertex 80.20133674251029 37.016790505729944 15.321783428965484
  endloop
endfacet
facet normal 2.1867000252434748e-47 -1.0 9.29475002784227e-32
  outer loop
    vertex 75.59911422137749 37.016790505729944 24.0
    vertex 80.20133674251029 37.016790505729944 15.321783428965484
    vertex 80.50103801002417 37.016790505729944 16.045326293657922
  endloop
endfacet
facet normal 2.1867000252434748e-47 -1.0 9.29475002784227e-32
  outer loop
    vertex 75.59911422137749 37.016790505729944 24.0
    vertex 80.50103801002417 37.016790505729944 16.045326293657922
    vertex 80.97779387781786 37.016790505729944 16.66664663721756
  endloop
endfacet
facet normal 2.1867000252434748e-47 -1.0 9.29475002784227e-32
  outer loop
    vertex 75.59911422137749 37.016790505729944 24.0
    vertex 80.97779387781786 37.016790505729944 16.66664663721756
    vertex 81.59911422137749 37.016790505729944 17.143402505011235
  endloop
endfacet
facet normal 2.1867000252434748e-47 -1.0 9.29475002784227e-32
  outer loop
    vertex 75.59911422137749 37.016790505729944 24.0
    vertex 81.59911422137749 37.016790505729944 17.143402505011235
    vertex 82.32265708606992 37.016790505729944 17.443103772525124
  endloop
endfacet
facet normal 2.1867000252434748e-47 -1.0 9.29475002784227e-32
  outer loop
    vertex 75.59911422137749 37.016790505729944 24.0
    vertex 82.32265708606992 37.016790505729944 17.443103772525124
    vertex 83.09911422137749 37.016790505729944 17.54532629365792
  endloop
endfacet
facet normal 2.1867000252434748e-47 -1.0 9.29475002784227e-32
  outer loop
    vertex 75.59911422137749 37.016790505729944 24.0
    vertex 83.09911422137749 37.016790505729944 17.54532629365792
    vertex 90.5991142213775 37.016790505729944 24.0
  endloop
endfacet
facet normal 0.0 1.0 0.0
  outer loop
    vertex 75.59911422137749 102.01679050572994 3.9999999999999996
    vertex 90.5991142213775 102.01679050572994 0.0
    vertex 75.59911422137749 102.01679050572994 0.0
  endloop
endfacet
facet normal 0.0 1.0 0.0
  outer loop
    vertex 90.5991142213775 102.01679050572994 0.0
    vertex 75.59911422137749 102.01679050572994 3.9999999999999996
    vertex 90.5991142213775 102.01679050572994 3.9999999999999996
  endloop
endfacet
facet normal 0.0 0.0 1.0
  outer loop
    vertex 90.5991142213775 37.016790505729944 24.0
    vertex 75.5991142213775 42.016790505729944 24.0
    vertex 75.59911422137749 37.016790505729944 24.0
  endloop
endfacet
facet normal 0.0 0.0 1.0
  outer loop
    vertex 75.5991142213775 42.016790505729944 24.0
    vertex 90.5991142213775 37.016790505729944 24.0
    vertex 90.5991142213775 42.016790505729944 24.0
  endloop
endfacet
facet normal 0.0 0.0 -1.0
  outer loop
    vertex 75.59911422137749 102.01679050572994 0.0
    vertex 81.5991142213775 97.01679050572993 0.0
    vertex 75.59911422137749 37.016790505729944 0.0
  endloop
endfacet
facet normal 0.0 0.0 -1.0
  outer loop
    vertex 81.5991142213775 97.01679050572993 0.0
    vertex 75.59911422137749 102.01679050572994 0.0
    vertex 90.5991142213775 102.01679050572994 0.0
  endloop
endfacet
facet normal 0.0 0.0 -1.0
  outer loop
    vertex 81.5991142213775 97.01679050572993 0.0
    vertex 90.5991142213775 102.01679050572994 0.0
    vertex 84.5991142213775 97.01679050572994 0.0
  endloop
endfacet
facet normal 0.0 0.0 -1.0
  outer loop
    vertex 84.5991142213775 97.01679050572994 0.0
    vertex 90.5991142213775 102.01679050572994 0.0
    vertex 84.5991142213775 42.016790505729944 0.0
  endloop
endfacet
facet normal 0.0 0.0 -1.0
  outer loop
    vertex 75.59911422137749 37.016790505729944 0.0
    vertex 81.5991142213775 42.016790505729944 0.0
    vertex 90.5991142213775 37.016790505729944 0.0
  endloop
endfacet
facet normal 0.0 0.0 -1.0
  outer loop
    vertex 81.5991142213775 42.016790505729944 0.0
    vertex 75.59911422137749 37.016790505729944 0.0
    vertex 81.5991142213775 97.01679050572993 0.0
  endloop
endfacet
facet normal 0.0 0.0 -1.0
  outer loop
    vertex 90.5991142213775 37.016790505729944 0.0
    vertex 81.5991142213775 42.016790505729944 0.0
    vertex 84.5991142213775 42.016790505729944 0.0
  endloop
endfacet
facet normal 0.0 0.0 -1.0
  outer loop
    vertex 90.5991142213775 37.016790505729944 0.0
    vertex 84.5991142213775 42.016790505729944 0.0
    vertex 90.5991142213775 102.01679050572994 0.0
  endloop
endfacet
facet normal 0.0 0.0 1.0
  outer loop
    vertex 75.5991142213775 42.016790505729944 3.9999999999999996
    vertex 81.5991142213775 97.01679050572993 3.9999999999999996
    vertex 75.59911422137749 97.01679050572994 3.9999999999999996
  endloop
endfacet
facet normal 0.0 0.0 1.0
  outer loop
    vertex 81.5991142213775 97.01679050572993 3.9999999999999996
    vertex 75.5991142213775 42.016790505729944 3.9999999999999996
    vertex 81.5991142213775 42.016790505729944 3.9999999999999996
  endloop
endfacet
facet normal 0.0 1.0 0.0
  outer loop
    vertex 75.5991142213775 42.016790505729944 24.0
    vertex 81.5991142213775 42.016790505729944 3.9999999999999996
    vertex 75.5991142213775 42.016790505729944 3.9999999999999996
  endloop
endfacet
facet normal 0.0 1.0 0.0
  outer loop
    vertex 81.5991142213775 42.016790505729944 3.9999999999999996
    vertex 75.5991142213775 42.016790505729944 24.0
    vertex 80.50103801002417 42.016790505729944 13.045326293657928
  endloop
endfacet
facet normal 0.0 1.0 0.0
  outer loop
    vertex 81.5991142213775 42.016790505729944 3.9999999999999996
    vertex 80.50103801002417 42.016790505729944 13.045326293657928
    vertex 84.5991142213775 42.016790505729944 3.9999999999999996
  endloop
endfacet
facet normal 0.0 1.0 0.0
  outer loop
    vertex 84.5991142213775 42.016790505729944 3.9999999999999996
    vertex 80.50103801002417 42.016790505729944 13.045326293657928
    vertex 80.97779387781786 42.016790505729944 12.424005950098286
  endloop
endfacet
facet normal 0.0 1.0 0.0
  outer loop
    vertex 84.5991142213775 42.016790505729944 3.9999999999999996
    vertex 80.97779387781786 42.016790505729944 12.424005950098286
    vertex 90.5991142213775 42.016790505729944 3.9999999999999996
  endloop
endfacet
facet normal 0.0 1.0 0.0
  outer loop
    vertex 90.5991142213775 42.016790505729944 3.9999999999999996
    vertex 80.97779387781786 42.016790505729944 12.424005950098286
    vertex 81.59911422137749 42.016790505729944 11.947250082304613
  endloop
endfacet
facet normal 0.0 1.0 0.0
  outer loop
    vertex 90.5991142213775 42.016790505729944 3.9999999999999996
    vertex 81.59911422137749 42.016790505729944 11.947250082304613
    vertex 82.32265708606994 42.016790505729944 11.647548814790724
  endloop
endfacet
facet normal 0.0 1.0 0.0
  outer loop
    vertex 90.5991142213775 42.016790505729944 3.9999999999999996
    vertex 82.32265708606994 42.016790505729944 11.647548814790724
    vertex 83.09911422137749 42.016790505729944 11.54532629365793
  endloop
endfacet
facet normal 0.0 1.0 0.0
  outer loop
    vertex 80.50103801002417 42.016790505729944 13.045326293657928
    vertex 75.5991142213775 42.016790505729944 24.0
    vertex 80.20133674251029 42.016790505729944 13.76886915835036
  endloop
endfacet
facet normal 0.0 1.0 0.0
  outer loop
    vertex 80.20133674251029 42.016790505729944 13.76886915835036
    vertex 75.5991142213775 42.016790505729944 24.0
    vertex 80.0991142213775 42.016790505729944 14.545326293657924
  endloop
endfacet
facet normal 0.0 1.0 0.0
  outer loop
    vertex 80.0991142213775 42.016790505729944 14.545326293657924
    vertex 75.5991142213775 42.016790505729944 24.0
    vertex 80.20133674251029 42.016790505729944 15.321783428965484
  endloop
endfacet
facet normal 0.0 1.0 0.0
  outer loop
    vertex 80.20133674251029 42.016790505729944 15.321783428965484
    vertex 75.5991142213775 42.016790505729944 24.0
    vertex 80.50103801002417 42.016790505729944 16.045326293657922
  endloop
endfacet
facet normal 0.0 1.0 0.0
  outer loop
    vertex 80.50103801002417 42.016790505729944 16.045326293657922
    vertex 75.5991142213775 42.016790505729944 24.0
    vertex 80.97779387781786 42.016790505729944 16.66664663721756
  endloop
endfacet
facet normal 0.0 1.0 0.0
  outer loop
    vertex 80.97779387781786 42.016790505729944 16.66664663721756
    vertex 75.5991142213775 42.016790505729944 24.0
    vertex 81.59911422137749 42.016790505729944 17.143402505011235
  endloop
endfacet
facet normal 0.0 1.0 0.0
  outer loop
    vertex 81.59911422137749 42.016790505729944 17.143402505011235
    vertex 75.5991142213775 42.016790505729944 24.0
    vertex 82.32265708606992 42.016790505729944 17.443103772525124
  endloop
endfacet
facet normal 0.0 1.0 0.0
  outer loop
    vertex 82.32265708606992 42.016790505729944 17.443103772525124
    vertex 75.5991142213775 42.016790505729944 24.0
    vertex 83.09911422137749 42.016790505729944 17.54532629365792
  endloop
endfacet
facet normal 0.0 1.0 0.0
  outer loop
    vertex 90.5991142213775 42.016790505729944 3.9999999999999996
    vertex 85.6971904327308 42.016790505729944 13.045326293657928
    vertex 90.5991142213775 42.016790505729944 24.0
  endloop
endfacet
facet normal 0.0 1.0 0.0
  outer loop
    vertex 85.6971904327308 42.016790505729944 13.045326293657928
    vertex 90.5991142213775 42.016790505729944 3.9999999999999996
    vertex 85.22043456493714 42.016790505729944 12.424005950098286
  endloop
endfacet
facet normal 0.0 1.0 0.0
  outer loop
    vertex 85.22043456493714 42.016790505729944 12.424005950098286
    vertex 90.5991142213775 42.016790505729944 3.9999999999999996
    vertex 84.59911422137749 42.016790505729944 11.947250082304613
  endloop
endfacet
facet normal 0.0 1.0 0.0
  outer loop
    vertex 84.59911422137749 42.016790505729944 11.947250082304613
    vertex 90.5991142213775 42.016790505729944 3.9999999999999996
    vertex 83.87557135668506 42.016790505729944 11.647548814790724
  endloop
endfacet
facet normal 0.0 1.0 0.0
  outer loop
    vertex 83.87557135668506 42.016790505729944 11.647548814790724
    vertex 90.5991142213775 42.016790505729944 3.9999999999999996
    vertex 83.09911422137749 42.016790505729944 11.54532629365793
  endloop
endfacet
facet normal 0.0 1.0 0.0
  outer loop
    vertex 90.5991142213775 42.016790505729944 24.0
    vertex 85.6971904327308 42.016790505729944 13.045326293657928
    vertex 85.9968917002447 42.016790505729944 13.768869158350364
  endloop
endfacet
facet normal 0.0 1.0 0.0
  outer loop
    vertex 90.5991142213775 42.016790505729944 24.0
    vertex 85.9968917002447 42.016790505729944 13.768869158350364
    vertex 86.09911422137749 42.016790505729944 14.545326293657924
  endloop
endfacet
facet normal 0.0 1.0 0.0
  outer loop
    vertex 90.5991142213775 42.016790505729944 24.0
    vertex 86.09911422137749 42.016790505729944 14.545326293657924
    vertex 85.99689170024469 42.016790505729944 15.321783428965487
  endloop
endfacet
facet normal 0.0 1.0 0.0
  outer loop
    vertex 90.5991142213775 42.016790505729944 24.0
    vertex 85.99689170024469 42.016790505729944 15.321783428965487
    vertex 85.6971904327308 42.016790505729944 16.045326293657926
  endloop
endfacet
facet normal 0.0 1.0 0.0
  outer loop
    vertex 90.5991142213775 42.016790505729944 24.0
    vertex 85.6971904327308 42.016790505729944 16.045326293657926
    vertex 85.22043456493714 42.016790505729944 16.666646637217564
  endloop
endfacet
facet normal 0.0 1.0 0.0
  outer loop
    vertex 90.5991142213775 42.016790505729944 24.0
    vertex 85.22043456493714 42.016790505729944 16.666646637217564
    vertex 84.59911422137749 42.016790505729944 17.143402505011235
  endloop
endfacet
facet normal 0.0 1.0 0.0
  outer loop
    vertex 90.5991142213775 42.016790505729944 24.0
    vertex 84.59911422137749 42.016790505729944 17.143402505011235
    vertex 83.87557135668506 42.016790505729944 17.443103772525124
  endloop
endfacet
facet normal 0.0 1.0 0.0
  outer loop
    vertex 90.5991142213775 42.016790505729944 24.0
    vertex 83.87557135668506 42.016790505729944 17.443103772525124
    vertex 83.09911422137749 42.016790505729944 17.54532629365792
  endloop
endfacet
facet normal 0.0 1.0 0.0
  outer loop
    vertex 90.5991142213775 42.016790505729944 24.0
    vertex 83.09911422137749 42.016790505729944 17.54532629365792
    vertex 75.5991142213775 42.016790505729944 24.0
  endloop
endfacet
facet normal 0.0 1.0 0.0
  outer loop
    vertex 81.5991142213775 42.016790505729944 3.9999999999999996
    vertex 84.5991142213775 42.016790505729944 0.0
    vertex 81.5991142213775 42.016790505729944 0.0
  endloop
endfacet
facet normal 0.0 1.0 0.0
  outer loop
    vertex 84.5991142213775 42.016790505729944 0.0
    vertex 81.5991142213775 42.016790505729944 3.9999999999999996
    vertex 84.5991142213775 42.016790505729944 3.9999999999999996
  endloop
endfacet
facet normal -1.0 -7.227813156289476e-17 6.536213777949842e-17
  outer loop
    vertex 75.5991142213775 42.016790505729944 24.0
    vertex 75.59911422137749 37.016790505729944 0.0
    vertex 75.59911422137749 37.016790505729944 24.0
  endloop
endfacet
facet normal -1.0 -7.227813156289476e-17 6.536213777949842e-17
  outer loop
    vertex 75.59911422137749 37.016790505729944 0.0
    vertex 75.5991142213775 42.016790505729944 24.0
    vertex 75.5991142213775 42.016790505729944 3.9999999999999996
  endloop
endfacet
facet normal -1.0 -7.227813156289476e-17 6.536213777949842e-17
  outer loop
    vertex 75.59911422137749 37.016790505729944 0.0
    vertex 75.5991142213775 42.016790505729944 3.9999999999999996
    vertex 75.59911422137749 102.01679050572994 0.0
  endloop
endfacet
facet normal -1.0 -7.227813156289476e-17 6.536213777949842e-17
  outer loop
    vertex 75.59911422137749 102.01679050572994 0.0
    vertex 75.5991142213775 42.016790505729944 3.9999999999999996
    vertex 75.59911422137749 97.01679050572994 3.9999999999999996
  endloop
endfacet
facet normal -1.0 -7.227813156289476e-17 6.536213777949842e-17
  outer loop
    vertex 75.59911422137749 102.01679050572994 0.0
    vertex 75.59911422137749 97.01679050572994 3.9999999999999996
    vertex 75.59911422137749 102.01679050572994 3.9999999999999996
  endloop
endfacet
facet normal 1.0 0.0 0.0
  outer loop
    vertex 90.5991142213775 37.016790505729944 0.0
    vertex 90.5991142213775 42.016790505729944 3.9999999999999996
    vertex 90.5991142213775 37.016790505729944 24.0
  endloop
endfacet
facet normal 1.0 0.0 0.0
  outer loop
    vertex 90.5991142213775 42.016790505729944 3.9999999999999996
    vertex 90.5991142213775 37.016790505729944 0.0
    vertex 90.5991142213775 102.01679050572994 0.0
  endloop
endfacet
facet normal 1.0 0.0 0.0
  outer loop
    vertex 90.5991142213775 42.016790505729944 3.9999999999999996
    vertex 90.5991142213775 102.01679050572994 0.0
    vertex 90.5991142213775 97.01679050572994 3.9999999999999996
  endloop
endfacet
facet normal 1.0 0.0 0.0
  outer loop
    vertex 90.5991142213775 97.01679050572994 3.9999999999999996
    vertex 90.5991142213775 102.01679050572994 0.0
    vertex 90.5991142213775 102.01679050572994 3.9999999999999996
  endloop
endfacet
facet normal 1.0 0.0 0.0
  outer loop
    vertex 90.5991142213775 42.016790505729944 24.0
    vertex 90.5991142213775 37.016790505729944 24.0
    vertex 90.5991142213775 42.016790505729944 3.9999999999999996
  endloop
endfacet
endsolid flame2
